<?xml version="1.0" encoding="UTF-8" standalone="no"?>
<svg
   data-name="Layer 1"
   id="Layer_1"
   viewBox="0 0 188.976 188.976"
   version="1.1"
   sodipodi:docname="3336938_avatar_people_profile_user_icon.svg"
   xml:space="preserve"
   width="188.976"
   height="188.976"
   inkscape:export-filename="lock.svg"
   inkscape:export-xdpi="96"
   inkscape:export-ydpi="96"
   xmlns:inkscape="http://www.inkscape.org/namespaces/inkscape"
   xmlns:sodipodi="http://sodipodi.sourceforge.net/DTD/sodipodi-0.dtd"
   xmlns="http://www.w3.org/2000/svg"
   xmlns:svg="http://www.w3.org/2000/svg"><sodipodi:namedview
     id="namedview17"
     pagecolor="#ffffff"
     bordercolor="#000000"
     borderopacity="0.25"
     inkscape:showpageshadow="2"
     inkscape:pageopacity="0.0"
     inkscape:pagecheckerboard="0"
     inkscape:deskcolor="#d1d1d1"
     showgrid="false"
     inkscape:zoom="0.98909496"
     inkscape:cx="530.28276"
     inkscape:cy="93.014325"
     inkscape:window-width="1920"
     inkscape:window-height="1017"
     inkscape:window-x="-8"
     inkscape:window-y="-8"
     inkscape:window-maximized="1"
     inkscape:current-layer="g2643" /><defs
     id="defs4"><style
       id="style2">.cls-1{fill:#4bbfb9;}.cls-2{fill:#5edbc6;}.cls-3{fill:#fff;}</style></defs><title
     id="title6" /><circle
     style="fill:#4bbfb9;fill-opacity:1;stroke:#876cfc;stroke-width:1.39627;stroke-opacity:0"
     id="circle2494"
     cx="94.487999"
     cy="94.487999"
     r="93.789864" /><g
     id="g2643"
     transform="translate(251.48041,119.07665)"><circle
       style="fill:#5edbc6;fill-opacity:1;stroke:#876cfc;stroke-width:1.11701;stroke-opacity:0"
       id="path2492"
       cx="-156.99242"
       cy="-24.588646"
       r="75.03199" /><g
       id="g2626"
       transform="matrix(2.1646918,0,0,2.1646918,182.84778,28.543885)"><g
         id="g1274"
         transform="translate(-125.57157,47.519403)"><g
           id="Layer_1-0"><g
             id="g1233"
             inkscape:label="g1233"
             transform="translate(-63.420846,-105.07882)"><g
               id="g1231"><path
                 d="m 21,33.667 c -1.381,0 -2.5,-1.119 -2.5,-2.5 v -7.334 c 0,-7.444 6.056,-13.5 13.5,-13.5 4.599,0 8.837,2.308 11.339,6.172 0.75,1.159 0.419,2.707 -0.74,3.457 -1.16,0.75 -2.707,0.419 -3.457,-0.74 -1.576,-2.435 -4.246,-3.889 -7.142,-3.889 -4.687,0 -8.5,3.813 -8.5,8.5 v 7.334 c 0,1.381 -1.119,2.5 -2.5,2.5 z"
                 fill="#4f5d73"
                 id="path1229" /></g></g><g
             id="g1239"
             transform="translate(-63.420846,-105.07882)"><g
               id="g1237"><path
                 d="m 32,32 c -2.209,0 -4,1.791 -4,4 0,1.477 0.809,2.752 2,3.445 V 42 c 0,1.105 0.895,2 2,2 1.105,0 2,-0.895 2,-2 v -2.555 c 1.191,-0.693 2,-1.968 2,-3.445 0,-2.209 -1.791,-4 -4,-4 z"
                 fill="#4f5d73"
                 id="path1235" /></g></g><g
             opacity="0.2"
             id="g1243"
             transform="translate(-63.420846,-105.07882)"><path
               d="M 47,27 H 17 c -1.657,0 -3,1.343 -3,3 v 19 c 0,1.657 1.343,3 3,3 h 30 c 1.657,0 3,-1.343 3,-3 V 30 c 0,-1.657 -1.343,-3 -3,-3 z M 34,41.445 V 44 c 0,1.105 -0.895,2 -2,2 -1.105,0 -2,-0.895 -2,-2 V 41.445 C 28.809,40.752 28,39.477 28,38 c 0,-2.209 1.791,-4 4,-4 2.209,0 4,1.791 4,4 0,1.477 -0.809,2.752 -2,3.445 z"
               fill="#231f20"
               id="path1241" /></g><g
             id="g1247"
             transform="translate(-63.420846,-105.07882)"><path
               d="M 47,25 H 17 c -1.657,0 -3,1.343 -3,3 v 19 c 0,1.657 1.343,3 3,3 h 30 c 1.657,0 3,-1.343 3,-3 V 28 c 0,-1.657 -1.343,-3 -3,-3 z M 34,39.445 V 42 c 0,1.105 -0.895,2 -2,2 -1.105,0 -2,-0.895 -2,-2 V 39.445 C 28.809,38.752 28,37.477 28,36 c 0,-2.209 1.791,-4 4,-4 2.209,0 4,1.791 4,4 0,1.477 -0.809,2.752 -2,3.445 z"
               fill="#ffffff"
               id="path1245" /></g></g><g
           id="Layer_2" /></g></g></g></svg>
