<?xml version="1.0" encoding="UTF-8" standalone="no"?>
<svg
   data-name="Layer 1"
   id="Layer_1"
   viewBox="0 0 188.976 188.976"
   version="1.1"
   sodipodi:docname="user.svg"
   xml:space="preserve"
   width="188.976"
   height="188.976"
   inkscape:export-filename="lock.svg"
   inkscape:export-xdpi="96"
   inkscape:export-ydpi="96"
   inkscape:version="1.2 (dc2aedaf03, 2022-05-15)"
   xmlns:inkscape="http://www.inkscape.org/namespaces/inkscape"
   xmlns:sodipodi="http://sodipodi.sourceforge.net/DTD/sodipodi-0.dtd"
   xmlns="http://www.w3.org/2000/svg"
   xmlns:svg="http://www.w3.org/2000/svg"><sodipodi:namedview
     id="namedview17"
     pagecolor="#ffffff"
     bordercolor="#000000"
     borderopacity="0.25"
     inkscape:showpageshadow="true"
     inkscape:pageopacity="0.0"
     inkscape:pagecheckerboard="false"
     inkscape:deskcolor="#d1d1d1"
     showgrid="false"
     inkscape:zoom="1.7130283"
     inkscape:cx="93.693724"
     inkscape:cy="98.655697"
     inkscape:window-width="1920"
     inkscape:window-height="1017"
     inkscape:window-x="-8"
     inkscape:window-y="-8"
     inkscape:window-maximized="1"
     inkscape:current-layer="layer1"
     showborder="true"
     borderlayer="true"
     shape-rendering="auto" /><defs
     id="defs4"><style
       id="style2">.cls-1{fill:#4bbfb9;}.cls-2{fill:#5edbc6;}.cls-3{fill:#fff;}</style></defs><title
     id="title6" /><g
     inkscape:label="Layer 1"
     id="layer1"
     transform="matrix(3.7795276,0,0,3.7795276,-130.45482,-38.958038)"><circle
       style="fill:#4bbfb9;fill-opacity:1;stroke:#876cfc;stroke-width:0.144322;stroke-opacity:0"
       id="path5546"
       cx="59.516171"
       cy="35.307648"
       r="24.927839" /><circle
       style="fill:#5edbc6;fill-opacity:1;stroke:#876cfc;stroke-width:0.115457;stroke-opacity:0"
       id="ellipse9284"
       cx="59.516171"
       cy="35.307648"
       r="19.942272" /><g
       id="layer1-3"
       transform="matrix(1.1151151,0,0,1.408286,48.36497,20.343744)"
       style="opacity:1;mix-blend-mode:normal;fill:#4f5d73;fill-opacity:1;fill-rule:nonzero;stroke:none;stroke-width:0.999928;stroke-dasharray:none;stroke-opacity:0"><path
         d="M 10,0 9.6054688,0.015625 9.2148438,0.0625 8.828125,0.13867188 8.4492188,0.24414062 8.078125,0.38085938 7.7207031,0.54492188 7.3769531,0.73632812 7.0488281,0.95507812 6.7382812,1.1972656 6.4492188,1.4648438 6.1816406,1.7539062 5.9375,2.0605469 5.71875,2.3867188 5.5253906,2.7304688 5.359375,3.0859375 5.2246094,3.4550781 5.1171875,3.8339844 5.0390625,4.21875 4.9941406,4.609375 4.9785156,5 4.9941406,5.6132812 5.0371094,6.2246094 5.1132812,6.8320312 5.21875,7.4355469 5.3535156,8.0332031 5.5175781,8.625 l 0.1914063,0.5800781 0.2207031,0.5722657 0.25,0.5585942 0.2753906,0.548828 0.1835938,0.308593 0.2089843,0.291016 0.0625,0.09766 0.037109,0.107422 0.00977,0.115235 -0.015625,0.115234 -0.042969,0.105469 -0.0625,0.0957 -0.085937,0.07617 -0.1015625,0.05664 -0.109375,0.0332 -0.7207031,0.132813 -0.7128906,0.15625 -0.7089844,0.179687 -0.7011719,0.205079 -0.6933594,0.230468 -0.6855469,0.253906 -0.2792968,0.125 -0.2636719,0.152344 -0.2480469,0.179688 -0.2285156,0.201172 -0.2050781,0.224609 -0.18164065,0.242187 -0.15625,0.261719 L 0.62304688,15.107422 0.4453125,15.578125 0.29492188,16.056641 0.171875,16.542969 0.07617187,17.035156 0.0078125,17.53125 0,17.736328 0.01953125,17.9375 l 0.046875,0.197266 0.07226563,0.189453 0.0976562,0.177734 0.11914063,0.164063 L 0.5,18.810547 l 0.15820312,0.125 0.17773438,0.101562 0.1875,0.08008 0.1972656,0.04883 1.1582031,0.208984 1.1640626,0.177734 1.1679687,0.148438 1.171875,0.11914 1.1738281,0.08984 1.1777344,0.06055 L 9.4121094,20 h 1.1757816 l 1.177734,-0.0293 1.177734,-0.06055 1.173829,-0.08984 1.171874,-0.11914 1.167969,-0.148438 1.16211,-0.177734 1.160156,-0.208984 0.197265,-0.04883 0.1875,-0.08008 0.175782,-0.101562 0.160156,-0.125 0.142578,-0.144531 0.121094,-0.164063 0.09766,-0.177734 0.07227,-0.189453 L 19.980469,17.9375 20,17.736328 19.9922,17.53125 l -0.06836,-0.496094 -0.0957,-0.492187 -0.123047,-0.486328 -0.15039,-0.478516 -0.177735,-0.470703 -0.128906,-0.275391 -0.158203,-0.261719 -0.181641,-0.242187 -0.205078,-0.224609 -0.228516,-0.201172 -0.248047,-0.179688 -0.263671,-0.152344 -0.279297,-0.125 -0.685547,-0.253906 -0.693359,-0.230468 -0.701172,-0.205079 -0.707032,-0.179687 -0.71289,-0.15625 -0.720703,-0.132813 -0.111329,-0.0332 -0.101562,-0.05664 -0.08398,-0.07617 -0.06445,-0.0957 -0.04101,-0.105469 -0.01758,-0.115234 0.01172,-0.115235 0.03711,-0.107422 0.06055,-0.09766 0.210937,-0.291016 0.183594,-0.308593 0.275391,-0.548828 L 14.070312,9.7773438 14.291016,9.2050781 14.484375,8.625 14.648438,8.0332031 14.783203,7.4355469 14.886719,6.8320312 14.962891,6.2246094 15.007812,5.6132812 15.021484,5 15.007812,4.609375 14.960938,4.21875 14.882812,3.8339844 14.777344,3.4550781 14.640625,3.0859375 14.474609,2.7304688 14.283203,2.3867188 14.064453,2.0605469 13.818359,1.7539062 13.552734,1.4648438 13.263672,1.1972656 12.953125,0.95507812 12.625,0.73632812 12.279297,0.54492188 11.921875,0.38085938 11.552734,0.24414062 11.173828,0.13867188 10.785156,0.0625 10.394531,0.015625 Z m -0.00195,1 0.351562,0.015625 0.347657,0.046875 0.341796,0.074219 0.333985,0.1054687 0.324219,0.1328125 0.3125,0.1621094 0.294922,0.1875 0.277343,0.2109375 0.259766,0.2363281 0.234375,0.2578125 0.214844,0.2773437 L 13.480469,3 l 0.160156,0.3105469 0.134766,0.3222656 0.105468,0.3339844 0.07617,0.3398437 0.04492,0.3457032 0.01563,0.3496093 -0.01367,0.5625 -0.04101,0.5625 -0.07031,0.5585938 -0.09766,0.5546875 -0.123047,0.5507812 -0.150391,0.5429688 -0.175781,0.5351562 -0.205078,0.5253906 -0.228516,0.515625 -0.253906,0.5039058 -0.136719,0.230469 -0.158203,0.21875 -0.126953,0.183594 -0.09375,0.201172 -0.06641,0.212891 -0.03516,0.21875 v 0.222656 l 0.0332,0.21875 0.06445,0.21289 0.0957,0.201172 0.125,0.183594 0.148437,0.164062 0.173829,0.140626 0.193359,0.113281 0.207031,0.08398 0.214844,0.05274 0.685547,0.126953 0.679687,0.148437 0.673829,0.171875 0.667968,0.195313 0.660156,0.21875 0.654297,0.242187 0.210938,0.0957 0.199219,0.121094 0.183593,0.142578 0.166016,0.16211 0.144531,0.179687 0.123047,0.199219 0.09961,0.207031 0.158204,0.417969 0.134765,0.425781 0.109375,0.433594 0.08398,0.435547 0.06055,0.443359 -0.002,0.123047 -0.03125,0.121094 -0.0625,0.105468 -0.08398,0.0918 -0.105469,0.06445 -0.11914,0.03906 -1.132813,0.203125 -1.138672,0.173828 -1.142578,0.146484 -1.146484,0.117188 -1.148438,0.08594 -1.152344,0.05859 L 10.576172,19 H 9.421875 L 8.2714844,18.970703 7.1210938,18.912109 5.9726562,18.826172 4.8242188,18.708984 3.6835938,18.5625 2.5429688,18.388672 1.4101562,18.185547 l -0.1171874,-0.03906 -0.1074219,-0.06445 -0.083984,-0.0918 -0.060547,-0.105468 -0.033203,-0.121094 -0.00195,-0.123047 0.0625,-0.443359 0.083984,-0.435547 0.109375,-0.433594 0.1328124,-0.425781 0.1582032,-0.417969 0.1015625,-0.207031 0.1230469,-0.199219 0.1445312,-0.179687 0.1660156,-0.16211 0.1835938,-0.142578 0.1992187,-0.121094 0.2109375,-0.0957 0.6523438,-0.242187 0.6601562,-0.21875 0.6679688,-0.195313 0.6757812,-0.171875 0.6796875,-0.148437 0.6835938,-0.126953 0.2167969,-0.05274 0.2070312,-0.08398 0.1933594,-0.113281 0.171875,-0.140626 0.1484375,-0.164062 0.1269531,-0.183594 0.09375,-0.201172 0.064453,-0.21289 0.033203,-0.21875 v -0.222656 l -0.035156,-0.21875 -0.064453,-0.212891 -0.095703,-0.201172 -0.125,-0.183594 L 7.4785156,10.644531 7.3417969,10.414062 7.0859375,9.9101562 6.8574219,9.3945312 6.6542969,8.8691406 6.4785156,8.3339844 6.328125,7.7910156 6.203125,7.2402344 6.1074219,6.6855469 6.0371094,6.1269531 5.9960938,5.5644531 5.9804688,5.0019531 5.9980469,4.6523438 6.0429688,4.3066406 6.1191406,3.9667969 6.2246094,3.6328125 6.359375,3.3105469 6.5195312,3 6.7089844,2.7070312 6.921875,2.4296875 7.1582031,2.171875 7.4179688,1.9355469 7.6953125,1.7246094 7.9902344,1.5371094 8.3007812,1.375 8.625,1.2421875 8.9589844,1.1367188 9.3027344,1.0625 9.6503906,1.015625 Z"
         style="fill:#4f5d73;fill-opacity:1;fill-rule:nonzero;stroke:none;stroke-width:0.999928;stroke-dasharray:none;stroke-opacity:0"
         id="path3568" /></g><path
       style="opacity:1;fill:#ffffff;fill-opacity:1;fill-rule:nonzero;stroke:none;stroke-width:2.76469;stroke-dasharray:none;stroke-opacity:0"
       d="m 76.688322,137.73036 c -9.373704,-1.13649 -18.490605,-3.07874 -19.274168,-4.10614 -1.531791,-2.00846 1.406919,-14.09393 4.120663,-16.94626 2.111784,-2.21963 8.365912,-4.97275 15.813584,-6.96129 5.850708,-1.56214 7.418509,-2.79809 8.46116,-6.6702 0.696327,-2.58596 0.376757,-4.48332 -1.327583,-7.882148 -4.539659,-9.053075 -7.757894,-26.606356 -6.312023,-34.427789 1.302405,-7.045357 5.179224,-12.960227 10.269915,-15.668828 3.566137,-1.897433 9.10531,-1.766847 12.61675,0.29744 3.43477,2.019216 6.1257,5.09205 8.04776,9.189919 1.43528,3.06006 1.51709,3.732784 1.49404,12.28563 -0.021,7.805262 -0.23819,9.902785 -1.5807,15.268215 -0.85597,3.42095 -2.64829,8.645039 -3.98293,11.609084 -2.02859,4.505216 -2.37829,5.817903 -2.132,8.002997 0.32657,2.8973 1.84578,5.33102 3.98229,6.37947 0.77147,0.37858 4.42365,1.62716 8.11594,2.7746 8.17562,2.54074 12.12014,4.64164 13.64492,7.26747 1.34531,2.31679 3.27308,9.95023 3.27961,12.9864 0.002,1.16469 -0.34748,2.40979 -0.77776,2.76688 -1.10179,0.91441 -11.02228,2.87954 -19.64576,3.89159 -8.9109,1.04578 -25.947898,1.01787 -34.813708,-0.057 z"
       id="path7158"
       transform="matrix(0.26458333,0,0,0.26458333,34.516171,10.307647)" /></g></svg>
